<?xml version="1.0" encoding="UTF-8" standalone="no"?>
<!-- Created with Inkscape (http://www.inkscape.org/) -->
<svg id="svg5608" xmlns:rdf="http://www.w3.org/1999/02/22-rdf-syntax-ns#" xmlns="http://www.w3.org/2000/svg" viewBox="0 0 372.05 106.3" version="1.1" xmlns:cc="http://creativecommons.org/ns#" xmlns:dc="http://purl.org/dc/elements/1.1/">
 <metadata id="metadata5613">
  <rdf:RDF>
   <cc:Work rdf:about="">
    <dc:format>image/svg+xml</dc:format>
    <dc:type rdf:resource="http://purl.org/dc/dcmitype/StillImage"/>
    <dc:title/>
   </cc:Work>
  </rdf:RDF>
 </metadata>
 <g id="layer1" transform="translate(0,-946.06294)">
  <g id="g5819" transform="matrix(0.49999999,0,0,0.49999999,-2533.4645,933.66137)">
   <g id="g3014" fill-rule="nonzero" transform="translate(2232.2931,4.0458895e-7)">
    <path id="path5825" style="enable-background:accumulate;color:#000000;" fill="#f93f26" d="m3065.7,78.027-18.436,10.649,0,21.251,18.436-10.649,0-21.251z"/>
    <path id="path5827" style="enable-background:accumulate;color:#000000;" fill="#008c82" d="m3047.2,88.676-18.436-10.649,0,21.251,18.436,10.649,0-21.251z"/>
    <path id="path5829" style="enable-background:accumulate;color:#000000;" d="m3047.2,88.676,18.42-10.666-18.426-10.638-18.426,10.658z" fill="#aadbc6"/>
    <path id="path5833" style="enable-background:accumulate;color:#000000;" fill="#f93f26" d="m2993.4,148.89,18.436,10.649,0,21.251-18.436-10.649,0-21.251z"/>
    <path id="path5835" style="enable-background:accumulate;color:#000000;" fill="#008c82" d="m3011.8,159.54,18.436-10.649,0,21.251-18.436,10.649,0-21.251z"/>
    <path id="path5837" style="enable-background:accumulate;color:#000000;" d="m3011.8,159.54-18.42-10.666,18.426-10.638,18.426,10.658z" fill="#aadbc6"/>
    <path id="path5841" style="enable-background:accumulate;color:#000000;" fill="#f93f26" d="m3064.2,148.85,18.44,10.642,18.404-10.626-18.44-10.642-18.404,10.626z"/>
    <path id="path5843" style="enable-background:accumulate;color:#000000;" fill="#008c82" d="m3082.7,159.49,0,21.291,18.404-10.626,0-21.291-18.404,10.626z"/>
    <path id="path5845" style="enable-background:accumulate;color:#000000;" d="m3082.7,159.49-18.447-10.62,0,21.277,18.443,10.629z" fill="#aadbc6"/>
   </g>
   <g id="g5847" transform="translate(2281.9194,14.187953)">
    <path id="path5849" style="enable-background:accumulate;color:#000000;" d="m5336.2,95.688,0,50.688c0.5693,11.233,9.8755,20.156,21.25,20.156,3.8948,0,7.5204-1.0777,10.656-2.9062,1.2583-0.73373,2.4531-1.5635,3.5312-2.5312v0.0312c1.0776,0.96403,2.2746,1.77,3.5313,2.5,3.1277,1.817,6.7383,2.9062,10.625,2.9062,11.375,0,20.681-8.9232,21.25-20.156v-50.688h-7.0625v49.594c0,7.8277-6.3598,14.188-14.188,14.188-4.2638,0-8.0313-1.9228-10.625-4.9062,0,0-1.268-2.2003-3.5313-2.2003s-3.5312,2.1691-3.5312,2.1691c-2.5942,3.0027-6.3766,4.9375-10.656,4.9375-7.8276,0-14.188-6.3598-14.188-14.188v-49.594z" transform="translate(-2246.4765,-14.160861)" fill="#0a0c11"/>
    <path id="path5851" style="enable-background:accumulate;color:#000000;" d="m3203.1,81.505c-11.374,0-20.681,8.9232-21.25,20.156v15.281,15.281c0.5694,11.233,9.8755,20.156,21.25,20.156,11.742,0,21.25-9.5085,21.25-21.25v-14.188-14.188c0-11.741-9.5085-21.25-21.25-21.25zm0,7.0625c7.8277,0,14.156,6.3598,14.156,14.188v14.188,14.188c0,7.8277-6.3286,14.188-14.156,14.188-7.8276,0-14.188-6.3598-14.188-14.188v-14.188-14.188c0-7.8277,6.3599-14.188,14.188-14.188z" fill="#0a0c11"/>
    <path id="path5853" style="enable-background:accumulate;color:#000000;" d="m3268.7,81.531c-11.374,0-20.681,8.9232-21.25,20.156v50.688h7.0625v-49.594c0-7.8277,6.3599-14.188,14.188-14.188h10.625v-7.0625h-10.625z" fill="#0a0c11"/>
    <path id="path5855" style="enable-background:accumulate;color:#000000;" d="m536.84,455.34,0,40.906c-3.7656-3.3939-8.7468-5.4688-14.219-5.4688-11.374,0-20.68,8.9232-21.25,20.156v15.281,15.281c0.5695,11.233,9.8755,20.156,21.25,20.156,11.742,0,21.25-9.5085,21.25-21.25v-14.188-7.125h0.0312v-63.75h-7.0625zm-14.219,42.5c7.8277,0,14.156,6.3598,14.156,14.188v14.188,14.188c0,7.8277-6.3286,14.188-14.156,14.188-7.8276,0-14.188-6.3598-14.188-14.188v-14.188-14.188c0-7.8277,6.3599-14.188,14.188-14.188z" transform="translate(2785.0098,-409.2667)" fill="#0a0c11"/>
    <g id="g5859" style="letter-spacing:0px;text-anchor:end;word-spacing:0px;text-align:end;" line-height="125%" font-weight="normal" font-size="58.403965px" transform="translate(1.0558499,-4.9654109e-6)" font-stretch="normal" font-variant="normal" font-style="normal" font-family="ISOCPEUR" fill="#000">
     <path id="path5861" d="m3349.1,88.609,0-1.1407,13.09-20.048c2.7377-4.2016,4.1065-7.7663,4.1065-10.694,0-3.8593-2.1768-5.789-6.5305-5.7891-1.54,0.000038-2.9849,0.40404-4.3347,1.212-1.3498,0.80803-2.3289,1.8299-2.9373,3.0656l-3.6787-3.0229c0.6463-1.8631,1.9154-3.346,3.807-4.4487,1.8917-1.1026,4.1779-1.654,6.8585-1.654,4.0115,0.000042,7.1484,0.92686,9.4108,2.7805,2.2624,1.8537,3.3936,4.4725,3.3936,7.8566,0,3.137-1.5019,7.0914-4.5058,11.863l-9.3822,14.886h16.369v5.1332z"/>
    </g>
   </g>
   <rect id="rect5865-1" style="enable-background:accumulate;color:#000000;" height="212.6" width="744.09" y="24.803" x="5066.9" fill="none"/>
  </g>
 </g>
</svg>
